<svg width="63" height="613" viewBox="0 0 63 613" fill="none" xmlns="http://www.w3.org/2000/svg">
<path d="M0.84 44V43.7L2.01 43.34C2.77 43.08 3.15 42.57 3.15 41.81V27.29L0.72 27.62V27.23C1.9 26.99 3.03 26.65 4.11 26.21C5.21 25.77 6.24 25.26 7.2 24.68L7.59 24.95L7.47 29.24V41.81C7.47 42.59 7.85 43.09 8.61 43.31L9.84 43.7V44H0.84ZM25.4883 32.57C25.4883 34.59 25.0183 36.43 24.0783 38.09C23.1383 39.73 21.7583 41.11 19.9383 42.23C18.1383 43.35 15.9283 44.14 13.3083 44.6L13.1883 44.06C14.9683 43.68 16.3983 43.13 17.4783 42.41C18.5583 41.69 19.3683 40.78 19.9083 39.68C20.4683 38.58 20.8283 37.26 20.9883 35.72C20.5683 36 20.0483 36.23 19.4283 36.41C18.8083 36.57 18.1083 36.65 17.3283 36.65C16.2083 36.65 15.1983 36.43 14.2983 35.99C13.4183 35.53 12.7183 34.87 12.1983 34.01C11.6783 33.15 11.4183 32.11 11.4183 30.89C11.4183 29.59 11.7383 28.47 12.3783 27.53C13.0183 26.57 13.8583 25.83 14.8983 25.31C15.9583 24.79 17.1183 24.53 18.3783 24.53C20.6583 24.53 22.4083 25.25 23.6283 26.69C24.8683 28.11 25.4883 30.07 25.4883 32.57ZM15.6483 30.5C15.6483 32.32 15.8983 33.64 16.3983 34.46C16.8983 35.26 17.7183 35.66 18.8583 35.66C19.6983 35.66 20.4283 35.48 21.0483 35.12C21.0883 34.68 21.1183 34.24 21.1383 33.8C21.1583 33.34 21.1683 32.86 21.1683 32.36C21.1683 30.52 21.0783 29.08 20.8983 28.04C20.7183 26.98 20.4283 26.23 20.0283 25.79C19.6283 25.35 19.0883 25.13 18.4083 25.13C17.4883 25.13 16.7983 25.55 16.3383 26.39C15.8783 27.23 15.6483 28.6 15.6483 30.5ZM27.2951 39.83C27.2951 38.81 27.7051 37.91 28.5251 37.13C29.3451 36.35 30.3551 35.72 31.5551 35.24C29.0151 33.92 27.7451 32.12 27.7451 29.84C27.7451 28.74 28.0251 27.8 28.5851 27.02C29.1451 26.22 29.9051 25.61 30.8651 25.19C31.8451 24.75 32.9351 24.53 34.1351 24.53C35.3551 24.53 36.3751 24.73 37.1951 25.13C38.0151 25.51 38.6251 26.03 39.0251 26.69C39.4451 27.33 39.6551 28.04 39.6551 28.82C39.6551 29.42 39.4951 30 39.1751 30.56C38.8551 31.12 38.4251 31.63 37.8851 32.09C37.3651 32.55 36.7951 32.93 36.1751 33.23C37.6751 33.97 38.7951 34.81 39.5351 35.75C40.2951 36.67 40.6751 37.78 40.6751 39.08C40.6751 40.7 40.0551 42 38.8151 42.98C37.5751 43.96 35.9151 44.45 33.8351 44.45C31.7151 44.45 30.0951 44.04 28.9751 43.22C27.8551 42.38 27.2951 41.25 27.2951 39.83ZM31.2551 28.13C31.2551 28.73 31.3651 29.29 31.5851 29.81C31.8051 30.31 32.2251 30.82 32.8451 31.34C33.4851 31.84 34.4051 32.38 35.6051 32.96C36.2051 32.26 36.5851 31.59 36.7451 30.95C36.9051 30.31 36.9851 29.69 36.9851 29.09C36.9851 27.67 36.7151 26.66 36.1751 26.06C35.6351 25.44 34.9251 25.13 34.0451 25.13C33.2651 25.13 32.6051 25.4 32.0651 25.94C31.5251 26.46 31.2551 27.19 31.2551 28.13ZM30.4451 39.53C30.4451 40.81 30.7651 41.85 31.4051 42.65C32.0451 43.45 32.9051 43.85 33.9851 43.85C34.9851 43.85 35.7451 43.53 36.2651 42.89C36.7851 42.23 37.0451 41.38 37.0451 40.34C37.0451 39.7 36.9051 39.13 36.6251 38.63C36.3451 38.11 35.8551 37.61 35.1551 37.13C34.4751 36.65 33.5251 36.14 32.3051 35.6C32.2051 35.56 32.1051 35.51 32.0051 35.45C31.5651 35.87 31.2351 36.27 31.0151 36.65C30.7951 37.01 30.6451 37.42 30.5651 37.88C30.4851 38.32 30.4451 38.87 30.4451 39.53ZM50.1237 44V39.14H42.2337V37.43L51.0237 24.74H53.9637V36.92H56.8137V39.14H53.9637V44H50.1237ZM43.5537 36.92H50.1237V27.47L43.5537 36.92Z" fill="black"/>
<path opacity="0.21" d="M0.84 109V108.7L2.01 108.34C2.77 108.08 3.15 107.57 3.15 106.81V92.29L0.72 92.62V92.23C1.9 91.99 3.03 91.65 4.11 91.21C5.21 90.77 6.24 90.26 7.2 89.68L7.59 89.95L7.47 94.24V106.81C7.47 107.59 7.85 108.09 8.61 108.31L9.84 108.7V109H0.84ZM25.4883 97.57C25.4883 99.59 25.0183 101.43 24.0783 103.09C23.1383 104.73 21.7583 106.11 19.9383 107.23C18.1383 108.35 15.9283 109.14 13.3083 109.6L13.1883 109.06C14.9683 108.68 16.3983 108.13 17.4783 107.41C18.5583 106.69 19.3683 105.78 19.9083 104.68C20.4683 103.58 20.8283 102.26 20.9883 100.72C20.5683 101 20.0483 101.23 19.4283 101.41C18.8083 101.57 18.1083 101.65 17.3283 101.65C16.2083 101.65 15.1983 101.43 14.2983 100.99C13.4183 100.53 12.7183 99.87 12.1983 99.01C11.6783 98.15 11.4183 97.11 11.4183 95.89C11.4183 94.59 11.7383 93.47 12.3783 92.53C13.0183 91.57 13.8583 90.83 14.8983 90.31C15.9583 89.79 17.1183 89.53 18.3783 89.53C20.6583 89.53 22.4083 90.25 23.6283 91.69C24.8683 93.11 25.4883 95.07 25.4883 97.57ZM15.6483 95.5C15.6483 97.32 15.8983 98.64 16.3983 99.46C16.8983 100.26 17.7183 100.66 18.8583 100.66C19.6983 100.66 20.4283 100.48 21.0483 100.12C21.0883 99.68 21.1183 99.24 21.1383 98.8C21.1583 98.34 21.1683 97.86 21.1683 97.36C21.1683 95.52 21.0783 94.08 20.8983 93.04C20.7183 91.98 20.4283 91.23 20.0283 90.79C19.6283 90.35 19.0883 90.13 18.4083 90.13C17.4883 90.13 16.7983 90.55 16.3383 91.39C15.8783 92.23 15.6483 93.6 15.6483 95.5ZM27.2951 104.83C27.2951 103.81 27.7051 102.91 28.5251 102.13C29.3451 101.35 30.3551 100.72 31.5551 100.24C29.0151 98.92 27.7451 97.12 27.7451 94.84C27.7451 93.74 28.0251 92.8 28.5851 92.02C29.1451 91.22 29.9051 90.61 30.8651 90.19C31.8451 89.75 32.9351 89.53 34.1351 89.53C35.3551 89.53 36.3751 89.73 37.1951 90.13C38.0151 90.51 38.6251 91.03 39.0251 91.69C39.4451 92.33 39.6551 93.04 39.6551 93.82C39.6551 94.42 39.4951 95 39.1751 95.56C38.8551 96.12 38.4251 96.63 37.8851 97.09C37.3651 97.55 36.7951 97.93 36.1751 98.23C37.6751 98.97 38.7951 99.81 39.5351 100.75C40.2951 101.67 40.6751 102.78 40.6751 104.08C40.6751 105.7 40.0551 107 38.8151 107.98C37.5751 108.96 35.9151 109.45 33.8351 109.45C31.7151 109.45 30.0951 109.04 28.9751 108.22C27.8551 107.38 27.2951 106.25 27.2951 104.83ZM31.2551 93.13C31.2551 93.73 31.3651 94.29 31.5851 94.81C31.8051 95.31 32.2251 95.82 32.8451 96.34C33.4851 96.84 34.4051 97.38 35.6051 97.96C36.2051 97.26 36.5851 96.59 36.7451 95.95C36.9051 95.31 36.9851 94.69 36.9851 94.09C36.9851 92.67 36.7151 91.66 36.1751 91.06C35.6351 90.44 34.9251 90.13 34.0451 90.13C33.2651 90.13 32.6051 90.4 32.0651 90.94C31.5251 91.46 31.2551 92.19 31.2551 93.13ZM30.4451 104.53C30.4451 105.81 30.7651 106.85 31.4051 107.65C32.0451 108.45 32.9051 108.85 33.9851 108.85C34.9851 108.85 35.7451 108.53 36.2651 107.89C36.7851 107.23 37.0451 106.38 37.0451 105.34C37.0451 104.7 36.9051 104.13 36.6251 103.63C36.3451 103.11 35.8551 102.61 35.1551 102.13C34.4751 101.65 33.5251 101.14 32.3051 100.6C32.2051 100.56 32.1051 100.51 32.0051 100.45C31.5651 100.87 31.2351 101.27 31.0151 101.65C30.7951 102.01 30.6451 102.42 30.5651 102.88C30.4851 103.32 30.4451 103.87 30.4451 104.53ZM56.5137 97.57C56.5137 99.59 56.0437 101.43 55.1037 103.09C54.1637 104.73 52.7837 106.11 50.9637 107.23C49.1637 108.35 46.9537 109.14 44.3337 109.6L44.2137 109.06C45.9937 108.68 47.4237 108.13 48.5037 107.41C49.5837 106.69 50.3937 105.78 50.9337 104.68C51.4937 103.58 51.8537 102.26 52.0137 100.72C51.5937 101 51.0737 101.23 50.4537 101.41C49.8337 101.57 49.1337 101.65 48.3537 101.65C47.2337 101.65 46.2237 101.43 45.3237 100.99C44.4437 100.53 43.7437 99.87 43.2237 99.01C42.7037 98.15 42.4437 97.11 42.4437 95.89C42.4437 94.59 42.7637 93.47 43.4037 92.53C44.0437 91.57 44.8837 90.83 45.9237 90.31C46.9837 89.79 48.1437 89.53 49.4037 89.53C51.6837 89.53 53.4337 90.25 54.6537 91.69C55.8937 93.11 56.5137 95.07 56.5137 97.57ZM46.6737 95.5C46.6737 97.32 46.9237 98.64 47.4237 99.46C47.9237 100.26 48.7437 100.66 49.8837 100.66C50.7237 100.66 51.4537 100.48 52.0737 100.12C52.1137 99.68 52.1437 99.24 52.1637 98.8C52.1837 98.34 52.1937 97.86 52.1937 97.36C52.1937 95.52 52.1037 94.08 51.9237 93.04C51.7437 91.98 51.4537 91.23 51.0537 90.79C50.6537 90.35 50.1137 90.13 49.4337 90.13C48.5137 90.13 47.8237 90.55 47.3637 91.39C46.9037 92.23 46.6737 93.6 46.6737 95.5Z" fill="black"/>
<path opacity="0.21" d="M0.84 174V173.7L2.01 173.34C2.77 173.08 3.15 172.57 3.15 171.81V157.29L0.72 157.62V157.23C1.9 156.99 3.03 156.65 4.11 156.21C5.21 155.77 6.24 155.26 7.2 154.68L7.59 154.95L7.47 159.24V171.81C7.47 172.59 7.85 173.09 8.61 173.31L9.84 173.7V174H0.84ZM25.4883 162.57C25.4883 164.59 25.0183 166.43 24.0783 168.09C23.1383 169.73 21.7583 171.11 19.9383 172.23C18.1383 173.35 15.9283 174.14 13.3083 174.6L13.1883 174.06C14.9683 173.68 16.3983 173.13 17.4783 172.41C18.5583 171.69 19.3683 170.78 19.9083 169.68C20.4683 168.58 20.8283 167.26 20.9883 165.72C20.5683 166 20.0483 166.23 19.4283 166.41C18.8083 166.57 18.1083 166.65 17.3283 166.65C16.2083 166.65 15.1983 166.43 14.2983 165.99C13.4183 165.53 12.7183 164.87 12.1983 164.01C11.6783 163.15 11.4183 162.11 11.4183 160.89C11.4183 159.59 11.7383 158.47 12.3783 157.53C13.0183 156.57 13.8583 155.83 14.8983 155.31C15.9583 154.79 17.1183 154.53 18.3783 154.53C20.6583 154.53 22.4083 155.25 23.6283 156.69C24.8683 158.11 25.4883 160.07 25.4883 162.57ZM15.6483 160.5C15.6483 162.32 15.8983 163.64 16.3983 164.46C16.8983 165.26 17.7183 165.66 18.8583 165.66C19.6983 165.66 20.4283 165.48 21.0483 165.12C21.0883 164.68 21.1183 164.24 21.1383 163.8C21.1583 163.34 21.1683 162.86 21.1683 162.36C21.1683 160.52 21.0783 159.08 20.8983 158.04C20.7183 156.98 20.4283 156.23 20.0283 155.79C19.6283 155.35 19.0883 155.13 18.4083 155.13C17.4883 155.13 16.7983 155.55 16.3383 156.39C15.8783 157.23 15.6483 158.6 15.6483 160.5ZM41.4551 162.57C41.4551 164.59 40.9851 166.43 40.0451 168.09C39.1051 169.73 37.7251 171.11 35.9051 172.23C34.1051 173.35 31.8951 174.14 29.2751 174.6L29.1551 174.06C30.9351 173.68 32.3651 173.13 33.4451 172.41C34.5251 171.69 35.3351 170.78 35.8751 169.68C36.4351 168.58 36.7951 167.26 36.9551 165.72C36.5351 166 36.0151 166.23 35.3951 166.41C34.7751 166.57 34.0751 166.65 33.2951 166.65C32.1751 166.65 31.1651 166.43 30.2651 165.99C29.3851 165.53 28.6851 164.87 28.1651 164.01C27.6451 163.15 27.3851 162.11 27.3851 160.89C27.3851 159.59 27.7051 158.47 28.3451 157.53C28.9851 156.57 29.8251 155.83 30.8651 155.31C31.9251 154.79 33.0851 154.53 34.3451 154.53C36.6251 154.53 38.3751 155.25 39.5951 156.69C40.8351 158.11 41.4551 160.07 41.4551 162.57ZM31.6151 160.5C31.6151 162.32 31.8651 163.64 32.3651 164.46C32.8651 165.26 33.6851 165.66 34.8251 165.66C35.6651 165.66 36.3951 165.48 37.0151 165.12C37.0551 164.68 37.0851 164.24 37.1051 163.8C37.1251 163.34 37.1351 162.86 37.1351 162.36C37.1351 160.52 37.0451 159.08 36.8651 158.04C36.6851 156.98 36.3951 156.23 35.9951 155.79C35.5951 155.35 35.0551 155.13 34.3751 155.13C33.4551 155.13 32.7651 155.55 32.3051 156.39C31.8451 157.23 31.6151 158.6 31.6151 160.5ZM43.2619 169.83C43.2619 168.81 43.6719 167.91 44.4919 167.13C45.3119 166.35 46.3219 165.72 47.5219 165.24C44.9819 163.92 43.7119 162.12 43.7119 159.84C43.7119 158.74 43.9919 157.8 44.5519 157.02C45.1119 156.22 45.8719 155.61 46.8319 155.19C47.8119 154.75 48.9019 154.53 50.1019 154.53C51.3219 154.53 52.3419 154.73 53.1619 155.13C53.9819 155.51 54.5919 156.03 54.9919 156.69C55.4119 157.33 55.6219 158.04 55.6219 158.82C55.6219 159.42 55.4619 160 55.1419 160.56C54.8219 161.12 54.3919 161.63 53.8519 162.09C53.3319 162.55 52.7619 162.93 52.1419 163.23C53.6419 163.97 54.7619 164.81 55.5019 165.75C56.2619 166.67 56.6419 167.78 56.6419 169.08C56.6419 170.7 56.0219 172 54.7819 172.98C53.5419 173.96 51.8819 174.45 49.8019 174.45C47.6819 174.45 46.0619 174.04 44.9419 173.22C43.8219 172.38 43.2619 171.25 43.2619 169.83ZM47.2219 158.13C47.2219 158.73 47.3319 159.29 47.5519 159.81C47.7719 160.31 48.1919 160.82 48.8119 161.34C49.4519 161.84 50.3719 162.38 51.5719 162.96C52.1719 162.26 52.5519 161.59 52.7119 160.95C52.8719 160.31 52.9519 159.69 52.9519 159.09C52.9519 157.67 52.6819 156.66 52.1419 156.06C51.6019 155.44 50.8919 155.13 50.0119 155.13C49.2319 155.13 48.5719 155.4 48.0319 155.94C47.4919 156.46 47.2219 157.19 47.2219 158.13ZM46.4119 169.53C46.4119 170.81 46.7319 171.85 47.3719 172.65C48.0119 173.45 48.8719 173.85 49.9519 173.85C50.9519 173.85 51.7119 173.53 52.2319 172.89C52.7519 172.23 53.0119 171.38 53.0119 170.34C53.0119 169.7 52.8719 169.13 52.5919 168.63C52.3119 168.11 51.8219 167.61 51.1219 167.13C50.4419 166.65 49.4919 166.14 48.2719 165.6C48.1719 165.56 48.0719 165.51 47.9719 165.45C47.5319 165.87 47.2019 166.27 46.9819 166.65C46.7619 167.01 46.6119 167.42 46.5319 167.88C46.4519 168.32 46.4119 168.87 46.4119 169.53Z" fill="black"/>
<path opacity="0.21" d="M2.07 225.02L2.28 220.76C2.88 220.42 3.62 220.13 4.5 219.89C5.4 219.65 6.41 219.53 7.53 219.53C9.13 219.53 10.42 219.76 11.4 220.22C12.38 220.66 13.1 221.27 13.56 222.05C14.02 222.83 14.25 223.71 14.25 224.69C14.25 226.07 13.58 227.42 12.24 228.74C10.9 230.04 9.07 231.48 6.75 233.06C6.31 233.38 5.79 233.77 5.19 234.23C4.59 234.69 4.03 235.14 3.51 235.58H14.76V239H1.56V236.48C2.28 235.78 2.98 235.09 3.66 234.41C4.36 233.71 5.02 233.05 5.64 232.43C7.08 230.95 8.15 229.64 8.85 228.5C9.57 227.34 9.93 226.1 9.93 224.78C9.93 223.4 9.68 222.29 9.18 221.45C8.68 220.59 7.93 220.16 6.93 220.16C6.31 220.16 5.73 220.32 5.19 220.64C4.67 220.94 4.21 221.47 3.81 222.23L2.37 225.02H2.07ZM23.4968 239.45C22.2968 239.45 21.1668 239.11 20.1068 238.43C19.0668 237.75 18.2268 236.68 17.5868 235.22C16.9468 233.76 16.6268 231.86 16.6268 229.52C16.6268 227.16 16.9468 225.25 17.5868 223.79C18.2268 222.31 19.0668 221.23 20.1068 220.55C21.1668 219.87 22.2968 219.53 23.4968 219.53C24.6968 219.53 25.8168 219.87 26.8568 220.55C27.9168 221.23 28.7668 222.31 29.4068 223.79C30.0668 225.25 30.3968 227.16 30.3968 229.52C30.3968 231.86 30.0668 233.76 29.4068 235.22C28.7668 236.68 27.9168 237.75 26.8568 238.43C25.8168 239.11 24.6968 239.45 23.4968 239.45ZM23.4968 238.85C23.9968 238.85 24.4168 238.72 24.7568 238.46C25.1168 238.2 25.4068 237.73 25.6268 237.05C25.8468 236.37 26.0068 235.43 26.1068 234.23C26.2068 233.01 26.2568 231.44 26.2568 229.52C26.2568 227.6 26.2068 226.03 26.1068 224.81C26.0068 223.57 25.8468 222.61 25.6268 221.93C25.4068 221.25 25.1168 220.78 24.7568 220.52C24.4168 220.26 23.9968 220.13 23.4968 220.13C22.9968 220.13 22.5668 220.26 22.2068 220.52C21.8668 220.78 21.5868 221.25 21.3668 221.93C21.1468 222.59 20.9868 223.54 20.8868 224.78C20.7868 226 20.7368 227.58 20.7368 229.52C20.7368 231.44 20.7868 233.01 20.8868 234.23C20.9868 235.45 21.1468 236.4 21.3668 237.08C21.5868 237.74 21.8668 238.2 22.2068 238.46C22.5668 238.72 22.9968 238.85 23.4968 238.85ZM38.5554 239.45C37.3554 239.45 36.2254 239.11 35.1654 238.43C34.1254 237.75 33.2854 236.68 32.6454 235.22C32.0054 233.76 31.6854 231.86 31.6854 229.52C31.6854 227.16 32.0054 225.25 32.6454 223.79C33.2854 222.31 34.1254 221.23 35.1654 220.55C36.2254 219.87 37.3554 219.53 38.5554 219.53C39.7554 219.53 40.8754 219.87 41.9154 220.55C42.9754 221.23 43.8254 222.31 44.4654 223.79C45.1254 225.25 45.4554 227.16 45.4554 229.52C45.4554 231.86 45.1254 233.76 44.4654 235.22C43.8254 236.68 42.9754 237.75 41.9154 238.43C40.8754 239.11 39.7554 239.45 38.5554 239.45ZM38.5554 238.85C39.0554 238.85 39.4754 238.72 39.8154 238.46C40.1754 238.2 40.4654 237.73 40.6854 237.05C40.9054 236.37 41.0654 235.43 41.1654 234.23C41.2654 233.01 41.3154 231.44 41.3154 229.52C41.3154 227.6 41.2654 226.03 41.1654 224.81C41.0654 223.57 40.9054 222.61 40.6854 221.93C40.4654 221.25 40.1754 220.78 39.8154 220.52C39.4754 220.26 39.0554 220.13 38.5554 220.13C38.0554 220.13 37.6254 220.26 37.2654 220.52C36.9254 220.78 36.6454 221.25 36.4254 221.93C36.2054 222.59 36.0454 223.54 35.9454 224.78C35.8454 226 35.7954 227.58 35.7954 229.52C35.7954 231.44 35.8454 233.01 35.9454 234.23C36.0454 235.45 36.2054 236.4 36.4254 237.08C36.6454 237.74 36.9254 238.2 37.2654 238.46C37.6254 238.72 38.0554 238.85 38.5554 238.85ZM53.404 239.45C52.244 239.45 51.204 239.34 50.284 239.12C49.384 238.92 48.584 238.58 47.884 238.1L48.094 234.32H48.394L49.774 236.78C50.174 237.5 50.664 238.03 51.244 238.37C51.824 238.69 52.464 238.85 53.164 238.85C55.464 238.85 56.614 237.1 56.614 233.6C56.614 232.02 56.304 230.82 55.684 230C55.084 229.18 54.184 228.77 52.984 228.77C52.424 228.77 51.864 228.85 51.304 229.01C50.764 229.15 50.264 229.34 49.804 229.58L49.264 229.25L49.924 219.98H60.424V223.4H50.524L50.104 228.59C50.564 228.25 51.184 227.93 51.964 227.63C52.744 227.33 53.564 227.18 54.424 227.18C55.724 227.18 56.874 227.41 57.874 227.87C58.894 228.33 59.684 229.01 60.244 229.91C60.824 230.79 61.114 231.88 61.114 233.18C61.114 234.52 60.774 235.66 60.094 236.6C59.434 237.54 58.524 238.25 57.364 238.73C56.204 239.21 54.884 239.45 53.404 239.45Z" fill="black"/>
<path opacity="0.21" d="M2.07 290.02L2.28 285.76C2.88 285.42 3.62 285.13 4.5 284.89C5.4 284.65 6.41 284.53 7.53 284.53C9.13 284.53 10.42 284.76 11.4 285.22C12.38 285.66 13.1 286.27 13.56 287.05C14.02 287.83 14.25 288.71 14.25 289.69C14.25 291.07 13.58 292.42 12.24 293.74C10.9 295.04 9.07 296.48 6.75 298.06C6.31 298.38 5.79 298.77 5.19 299.23C4.59 299.69 4.03 300.14 3.51 300.58H14.76V304H1.56V301.48C2.28 300.78 2.98 300.09 3.66 299.41C4.36 298.71 5.02 298.05 5.64 297.43C7.08 295.95 8.15 294.64 8.85 293.5C9.57 292.34 9.93 291.1 9.93 289.78C9.93 288.4 9.68 287.29 9.18 286.45C8.68 285.59 7.93 285.16 6.93 285.16C6.31 285.16 5.73 285.32 5.19 285.64C4.67 285.94 4.21 286.47 3.81 287.23L2.37 290.02H2.07ZM23.4968 304.45C22.2968 304.45 21.1668 304.11 20.1068 303.43C19.0668 302.75 18.2268 301.68 17.5868 300.22C16.9468 298.76 16.6268 296.86 16.6268 294.52C16.6268 292.16 16.9468 290.25 17.5868 288.79C18.2268 287.31 19.0668 286.23 20.1068 285.55C21.1668 284.87 22.2968 284.53 23.4968 284.53C24.6968 284.53 25.8168 284.87 26.8568 285.55C27.9168 286.23 28.7668 287.31 29.4068 288.79C30.0668 290.25 30.3968 292.16 30.3968 294.52C30.3968 296.86 30.0668 298.76 29.4068 300.22C28.7668 301.68 27.9168 302.75 26.8568 303.43C25.8168 304.11 24.6968 304.45 23.4968 304.45ZM23.4968 303.85C23.9968 303.85 24.4168 303.72 24.7568 303.46C25.1168 303.2 25.4068 302.73 25.6268 302.05C25.8468 301.37 26.0068 300.43 26.1068 299.23C26.2068 298.01 26.2568 296.44 26.2568 294.52C26.2568 292.6 26.2068 291.03 26.1068 289.81C26.0068 288.57 25.8468 287.61 25.6268 286.93C25.4068 286.25 25.1168 285.78 24.7568 285.52C24.4168 285.26 23.9968 285.13 23.4968 285.13C22.9968 285.13 22.5668 285.26 22.2068 285.52C21.8668 285.78 21.5868 286.25 21.3668 286.93C21.1468 287.59 20.9868 288.54 20.8868 289.78C20.7868 291 20.7368 292.58 20.7368 294.52C20.7368 296.44 20.7868 298.01 20.8868 299.23C20.9868 300.45 21.1468 301.4 21.3668 302.08C21.5868 302.74 21.8668 303.2 22.2068 303.46C22.5668 303.72 22.9968 303.85 23.4968 303.85ZM38.5554 304.45C37.3554 304.45 36.2254 304.11 35.1654 303.43C34.1254 302.75 33.2854 301.68 32.6454 300.22C32.0054 298.76 31.6854 296.86 31.6854 294.52C31.6854 292.16 32.0054 290.25 32.6454 288.79C33.2854 287.31 34.1254 286.23 35.1654 285.55C36.2254 284.87 37.3554 284.53 38.5554 284.53C39.7554 284.53 40.8754 284.87 41.9154 285.55C42.9754 286.23 43.8254 287.31 44.4654 288.79C45.1254 290.25 45.4554 292.16 45.4554 294.52C45.4554 296.86 45.1254 298.76 44.4654 300.22C43.8254 301.68 42.9754 302.75 41.9154 303.43C40.8754 304.11 39.7554 304.45 38.5554 304.45ZM38.5554 303.85C39.0554 303.85 39.4754 303.72 39.8154 303.46C40.1754 303.2 40.4654 302.73 40.6854 302.05C40.9054 301.37 41.0654 300.43 41.1654 299.23C41.2654 298.01 41.3154 296.44 41.3154 294.52C41.3154 292.6 41.2654 291.03 41.1654 289.81C41.0654 288.57 40.9054 287.61 40.6854 286.93C40.4654 286.25 40.1754 285.78 39.8154 285.52C39.4754 285.26 39.0554 285.13 38.5554 285.13C38.0554 285.13 37.6254 285.26 37.2654 285.52C36.9254 285.78 36.6454 286.25 36.4254 286.93C36.2054 287.59 36.0454 288.54 35.9454 289.78C35.8454 291 35.7954 292.58 35.7954 294.52C35.7954 296.44 35.8454 298.01 35.9454 299.23C36.0454 300.45 36.2054 301.4 36.4254 302.08C36.6454 302.74 36.9254 303.2 37.2654 303.46C37.6254 303.72 38.0554 303.85 38.5554 303.85ZM61.084 292.57C61.084 294.59 60.614 296.43 59.674 298.09C58.734 299.73 57.354 301.11 55.534 302.23C53.734 303.35 51.524 304.14 48.904 304.6L48.784 304.06C50.564 303.68 51.994 303.13 53.074 302.41C54.154 301.69 54.964 300.78 55.504 299.68C56.064 298.58 56.424 297.26 56.584 295.72C56.164 296 55.644 296.23 55.024 296.41C54.404 296.57 53.704 296.65 52.924 296.65C51.804 296.65 50.794 296.43 49.894 295.99C49.014 295.53 48.314 294.87 47.794 294.01C47.274 293.15 47.014 292.11 47.014 290.89C47.014 289.59 47.334 288.47 47.974 287.53C48.614 286.57 49.454 285.83 50.494 285.31C51.554 284.79 52.714 284.53 53.974 284.53C56.254 284.53 58.004 285.25 59.224 286.69C60.464 288.11 61.084 290.07 61.084 292.57ZM51.244 290.5C51.244 292.32 51.494 293.64 51.994 294.46C52.494 295.26 53.314 295.66 54.454 295.66C55.294 295.66 56.024 295.48 56.644 295.12C56.684 294.68 56.714 294.24 56.734 293.8C56.754 293.34 56.764 292.86 56.764 292.36C56.764 290.52 56.674 289.08 56.494 288.04C56.314 286.98 56.024 286.23 55.624 285.79C55.224 285.35 54.684 285.13 54.004 285.13C53.084 285.13 52.394 285.55 51.934 286.39C51.474 287.23 51.244 288.6 51.244 290.5Z" fill="black"/>
<path opacity="0.21" d="M2.07 355.02L2.28 350.76C2.88 350.42 3.62 350.13 4.5 349.89C5.4 349.65 6.41 349.53 7.53 349.53C9.13 349.53 10.42 349.76 11.4 350.22C12.38 350.66 13.1 351.27 13.56 352.05C14.02 352.83 14.25 353.71 14.25 354.69C14.25 356.07 13.58 357.42 12.24 358.74C10.9 360.04 9.07 361.48 6.75 363.06C6.31 363.38 5.79 363.77 5.19 364.23C4.59 364.69 4.03 365.14 3.51 365.58H14.76V369H1.56V366.48C2.28 365.78 2.98 365.09 3.66 364.41C4.36 363.71 5.02 363.05 5.64 362.43C7.08 360.95 8.15 359.64 8.85 358.5C9.57 357.34 9.93 356.1 9.93 354.78C9.93 353.4 9.68 352.29 9.18 351.45C8.68 350.59 7.93 350.16 6.93 350.16C6.31 350.16 5.73 350.32 5.19 350.64C4.67 350.94 4.21 351.47 3.81 352.23L2.37 355.02H2.07ZM23.4968 369.45C22.2968 369.45 21.1668 369.11 20.1068 368.43C19.0668 367.75 18.2268 366.68 17.5868 365.22C16.9468 363.76 16.6268 361.86 16.6268 359.52C16.6268 357.16 16.9468 355.25 17.5868 353.79C18.2268 352.31 19.0668 351.23 20.1068 350.55C21.1668 349.87 22.2968 349.53 23.4968 349.53C24.6968 349.53 25.8168 349.87 26.8568 350.55C27.9168 351.23 28.7668 352.31 29.4068 353.79C30.0668 355.25 30.3968 357.16 30.3968 359.52C30.3968 361.86 30.0668 363.76 29.4068 365.22C28.7668 366.68 27.9168 367.75 26.8568 368.43C25.8168 369.11 24.6968 369.45 23.4968 369.45ZM23.4968 368.85C23.9968 368.85 24.4168 368.72 24.7568 368.46C25.1168 368.2 25.4068 367.73 25.6268 367.05C25.8468 366.37 26.0068 365.43 26.1068 364.23C26.2068 363.01 26.2568 361.44 26.2568 359.52C26.2568 357.6 26.2068 356.03 26.1068 354.81C26.0068 353.57 25.8468 352.61 25.6268 351.93C25.4068 351.25 25.1168 350.78 24.7568 350.52C24.4168 350.26 23.9968 350.13 23.4968 350.13C22.9968 350.13 22.5668 350.26 22.2068 350.52C21.8668 350.78 21.5868 351.25 21.3668 351.93C21.1468 352.59 20.9868 353.54 20.8868 354.78C20.7868 356 20.7368 357.58 20.7368 359.52C20.7368 361.44 20.7868 363.01 20.8868 364.23C20.9868 365.45 21.1468 366.4 21.3668 367.08C21.5868 367.74 21.8668 368.2 22.2068 368.46C22.5668 368.72 22.9968 368.85 23.4968 368.85ZM31.8654 369V368.7L33.0354 368.34C33.7954 368.08 34.1754 367.57 34.1754 366.81V352.29L31.7454 352.62V352.23C32.9254 351.99 34.0554 351.65 35.1354 351.21C36.2354 350.77 37.2654 350.26 38.2254 349.68L38.6154 349.95L38.4954 354.24V366.81C38.4954 367.59 38.8754 368.09 39.6354 368.31L40.8654 368.7V369H31.8654ZM49.1337 369.45C47.7937 369.45 46.6937 369.3 45.8337 369C44.9937 368.7 44.1637 368.35 43.3437 367.95L43.6737 364.05H43.9737L45.2937 366.48C46.1737 368.06 47.3937 368.85 48.9537 368.85C49.8737 368.85 50.6137 368.47 51.1737 367.71C51.7537 366.93 52.0437 365.63 52.0437 363.81C52.0437 362.23 51.8037 361.1 51.3237 360.42C50.8437 359.72 50.0237 359.37 48.8637 359.37H47.0637V358.77H48.6537C49.7137 358.77 50.4737 358.45 50.9337 357.81C51.4137 357.17 51.6537 356.06 51.6537 354.48C51.6537 352.94 51.4237 351.85 50.9637 351.21C50.5037 350.55 49.8937 350.22 49.1337 350.22C48.3737 350.22 47.7337 350.44 47.2137 350.88C46.7137 351.32 46.3037 351.84 45.9837 352.44L44.6337 354.96L44.3337 354.93L44.6337 350.52C45.2737 350.24 45.9837 350.01 46.7637 349.83C47.5637 349.63 48.4537 349.53 49.4337 349.53C51.5337 349.53 53.1237 349.99 54.2037 350.91C55.3037 351.81 55.8537 352.94 55.8537 354.3C55.8537 355.28 55.4337 356.22 54.5937 357.12C53.7537 358 52.4337 358.61 50.6337 358.95C52.6737 359.13 54.1537 359.68 55.0737 360.6C55.9937 361.52 56.4537 362.63 56.4537 363.93C56.4537 364.97 56.1537 365.91 55.5537 366.75C54.9737 367.59 54.1337 368.25 53.0337 368.73C51.9537 369.21 50.6537 369.45 49.1337 369.45Z" fill="black"/>
<path opacity="0.21" d="M2.07 420.02L2.28 415.76C2.88 415.42 3.62 415.13 4.5 414.89C5.4 414.65 6.41 414.53 7.53 414.53C9.13 414.53 10.42 414.76 11.4 415.22C12.38 415.66 13.1 416.27 13.56 417.05C14.02 417.83 14.25 418.71 14.25 419.69C14.25 421.07 13.58 422.42 12.24 423.74C10.9 425.04 9.07 426.48 6.75 428.06C6.31 428.38 5.79 428.77 5.19 429.23C4.59 429.69 4.03 430.14 3.51 430.58H14.76V434H1.56V431.48C2.28 430.78 2.98 430.09 3.66 429.41C4.36 428.71 5.02 428.05 5.64 427.43C7.08 425.95 8.15 424.64 8.85 423.5C9.57 422.34 9.93 421.1 9.93 419.78C9.93 418.4 9.68 417.29 9.18 416.45C8.68 415.59 7.93 415.16 6.93 415.16C6.31 415.16 5.73 415.32 5.19 415.64C4.67 415.94 4.21 416.47 3.81 417.23L2.37 420.02H2.07ZM23.4968 434.45C22.2968 434.45 21.1668 434.11 20.1068 433.43C19.0668 432.75 18.2268 431.68 17.5868 430.22C16.9468 428.76 16.6268 426.86 16.6268 424.52C16.6268 422.16 16.9468 420.25 17.5868 418.79C18.2268 417.31 19.0668 416.23 20.1068 415.55C21.1668 414.87 22.2968 414.53 23.4968 414.53C24.6968 414.53 25.8168 414.87 26.8568 415.55C27.9168 416.23 28.7668 417.31 29.4068 418.79C30.0668 420.25 30.3968 422.16 30.3968 424.52C30.3968 426.86 30.0668 428.76 29.4068 430.22C28.7668 431.68 27.9168 432.75 26.8568 433.43C25.8168 434.11 24.6968 434.45 23.4968 434.45ZM23.4968 433.85C23.9968 433.85 24.4168 433.72 24.7568 433.46C25.1168 433.2 25.4068 432.73 25.6268 432.05C25.8468 431.37 26.0068 430.43 26.1068 429.23C26.2068 428.01 26.2568 426.44 26.2568 424.52C26.2568 422.6 26.2068 421.03 26.1068 419.81C26.0068 418.57 25.8468 417.61 25.6268 416.93C25.4068 416.25 25.1168 415.78 24.7568 415.52C24.4168 415.26 23.9968 415.13 23.4968 415.13C22.9968 415.13 22.5668 415.26 22.2068 415.52C21.8668 415.78 21.5868 416.25 21.3668 416.93C21.1468 417.59 20.9868 418.54 20.8868 419.78C20.7868 421 20.7368 422.58 20.7368 424.52C20.7368 426.44 20.7868 428.01 20.8868 429.23C20.9868 430.45 21.1468 431.4 21.3668 432.08C21.5868 432.74 21.8668 433.2 22.2068 433.46C22.5668 433.72 22.9968 433.85 23.4968 433.85ZM31.8654 434V433.7L33.0354 433.34C33.7954 433.08 34.1754 432.57 34.1754 431.81V417.29L31.7454 417.62V417.23C32.9254 416.99 34.0554 416.65 35.1354 416.21C36.2354 415.77 37.2654 415.26 38.2254 414.68L38.6154 414.95L38.4954 419.24V431.81C38.4954 432.59 38.8754 433.09 39.6354 433.31L40.8654 433.7V434H31.8654ZM44.4837 434L44.1837 433.7L54.5637 418.1H42.3237V414.98H55.5237V416.93L48.4437 434H44.4837Z" fill="black"/>
<path opacity="0.21" d="M2.07 485.02L2.28 480.76C2.88 480.42 3.62 480.13 4.5 479.89C5.4 479.65 6.41 479.53 7.53 479.53C9.13 479.53 10.42 479.76 11.4 480.22C12.38 480.66 13.1 481.27 13.56 482.05C14.02 482.83 14.25 483.71 14.25 484.69C14.25 486.07 13.58 487.42 12.24 488.74C10.9 490.04 9.07 491.48 6.75 493.06C6.31 493.38 5.79 493.77 5.19 494.23C4.59 494.69 4.03 495.14 3.51 495.58H14.76V499H1.56V496.48C2.28 495.78 2.98 495.09 3.66 494.41C4.36 493.71 5.02 493.05 5.64 492.43C7.08 490.95 8.15 489.64 8.85 488.5C9.57 487.34 9.93 486.1 9.93 484.78C9.93 483.4 9.68 482.29 9.18 481.45C8.68 480.59 7.93 480.16 6.93 480.16C6.31 480.16 5.73 480.32 5.19 480.64C4.67 480.94 4.21 481.47 3.81 482.23L2.37 485.02H2.07ZM23.4968 499.45C22.2968 499.45 21.1668 499.11 20.1068 498.43C19.0668 497.75 18.2268 496.68 17.5868 495.22C16.9468 493.76 16.6268 491.86 16.6268 489.52C16.6268 487.16 16.9468 485.25 17.5868 483.79C18.2268 482.31 19.0668 481.23 20.1068 480.55C21.1668 479.87 22.2968 479.53 23.4968 479.53C24.6968 479.53 25.8168 479.87 26.8568 480.55C27.9168 481.23 28.7668 482.31 29.4068 483.79C30.0668 485.25 30.3968 487.16 30.3968 489.52C30.3968 491.86 30.0668 493.76 29.4068 495.22C28.7668 496.68 27.9168 497.75 26.8568 498.43C25.8168 499.11 24.6968 499.45 23.4968 499.45ZM23.4968 498.85C23.9968 498.85 24.4168 498.72 24.7568 498.46C25.1168 498.2 25.4068 497.73 25.6268 497.05C25.8468 496.37 26.0068 495.43 26.1068 494.23C26.2068 493.01 26.2568 491.44 26.2568 489.52C26.2568 487.6 26.2068 486.03 26.1068 484.81C26.0068 483.57 25.8468 482.61 25.6268 481.93C25.4068 481.25 25.1168 480.78 24.7568 480.52C24.4168 480.26 23.9968 480.13 23.4968 480.13C22.9968 480.13 22.5668 480.26 22.2068 480.52C21.8668 480.78 21.5868 481.25 21.3668 481.93C21.1468 482.59 20.9868 483.54 20.8868 484.78C20.7868 486 20.7368 487.58 20.7368 489.52C20.7368 491.44 20.7868 493.01 20.8868 494.23C20.9868 495.45 21.1468 496.4 21.3668 497.08C21.5868 497.74 21.8668 498.2 22.2068 498.46C22.5668 498.72 22.9968 498.85 23.4968 498.85ZM31.8654 499V498.7L33.0354 498.34C33.7954 498.08 34.1754 497.57 34.1754 496.81V482.29L31.7454 482.62V482.23C32.9254 481.99 34.0554 481.65 35.1354 481.21C36.2354 480.77 37.2654 480.26 38.2254 479.68L38.6154 479.95L38.4954 484.24V496.81C38.4954 497.59 38.8754 498.09 39.6354 498.31L40.8654 498.7V499H31.8654ZM42.3537 494.83C42.3537 493.81 42.7637 492.91 43.5837 492.13C44.4037 491.35 45.4137 490.72 46.6137 490.24C44.0737 488.92 42.8037 487.12 42.8037 484.84C42.8037 483.74 43.0837 482.8 43.6437 482.02C44.2037 481.22 44.9637 480.61 45.9237 480.19C46.9037 479.75 47.9937 479.53 49.1937 479.53C50.4137 479.53 51.4337 479.73 52.2537 480.13C53.0737 480.51 53.6837 481.03 54.0837 481.69C54.5037 482.33 54.7137 483.04 54.7137 483.82C54.7137 484.42 54.5537 485 54.2337 485.56C53.9137 486.12 53.4837 486.63 52.9437 487.09C52.4237 487.55 51.8537 487.93 51.2337 488.23C52.7337 488.97 53.8537 489.81 54.5937 490.75C55.3537 491.67 55.7337 492.78 55.7337 494.08C55.7337 495.7 55.1137 497 53.8737 497.98C52.6337 498.96 50.9737 499.45 48.8937 499.45C46.7737 499.45 45.1537 499.04 44.0337 498.22C42.9137 497.38 42.3537 496.25 42.3537 494.83ZM46.3137 483.13C46.3137 483.73 46.4237 484.29 46.6437 484.81C46.8637 485.31 47.2837 485.82 47.9037 486.34C48.5437 486.84 49.4637 487.38 50.6637 487.96C51.2637 487.26 51.6437 486.59 51.8037 485.95C51.9637 485.31 52.0437 484.69 52.0437 484.09C52.0437 482.67 51.7737 481.66 51.2337 481.06C50.6937 480.44 49.9837 480.13 49.1037 480.13C48.3237 480.13 47.6637 480.4 47.1237 480.94C46.5837 481.46 46.3137 482.19 46.3137 483.13ZM45.5037 494.53C45.5037 495.81 45.8237 496.85 46.4637 497.65C47.1037 498.45 47.9637 498.85 49.0437 498.85C50.0437 498.85 50.8037 498.53 51.3237 497.89C51.8437 497.23 52.1037 496.38 52.1037 495.34C52.1037 494.7 51.9637 494.13 51.6837 493.63C51.4037 493.11 50.9137 492.61 50.2137 492.13C49.5337 491.65 48.5837 491.14 47.3637 490.6C47.2637 490.56 47.1637 490.51 47.0637 490.45C46.6237 490.87 46.2937 491.27 46.0737 491.65C45.8537 492.01 45.7037 492.42 45.6237 492.88C45.5437 493.32 45.5037 493.87 45.5037 494.53Z" fill="black"/>
<path opacity="0.21" d="M2.07 550.02L2.28 545.76C2.88 545.42 3.62 545.13 4.5 544.89C5.4 544.65 6.41 544.53 7.53 544.53C9.13 544.53 10.42 544.76 11.4 545.22C12.38 545.66 13.1 546.27 13.56 547.05C14.02 547.83 14.25 548.71 14.25 549.69C14.25 551.07 13.58 552.42 12.24 553.74C10.9 555.04 9.07 556.48 6.75 558.06C6.31 558.38 5.79 558.77 5.19 559.23C4.59 559.69 4.03 560.14 3.51 560.58H14.76V564H1.56V561.48C2.28 560.78 2.98 560.09 3.66 559.41C4.36 558.71 5.02 558.05 5.64 557.43C7.08 555.95 8.15 554.64 8.85 553.5C9.57 552.34 9.93 551.1 9.93 549.78C9.93 548.4 9.68 547.29 9.18 546.45C8.68 545.59 7.93 545.16 6.93 545.16C6.31 545.16 5.73 545.32 5.19 545.64C4.67 545.94 4.21 546.47 3.81 547.23L2.37 550.02H2.07ZM23.4968 564.45C22.2968 564.45 21.1668 564.11 20.1068 563.43C19.0668 562.75 18.2268 561.68 17.5868 560.22C16.9468 558.76 16.6268 556.86 16.6268 554.52C16.6268 552.16 16.9468 550.25 17.5868 548.79C18.2268 547.31 19.0668 546.23 20.1068 545.55C21.1668 544.87 22.2968 544.53 23.4968 544.53C24.6968 544.53 25.8168 544.87 26.8568 545.55C27.9168 546.23 28.7668 547.31 29.4068 548.79C30.0668 550.25 30.3968 552.16 30.3968 554.52C30.3968 556.86 30.0668 558.76 29.4068 560.22C28.7668 561.68 27.9168 562.75 26.8568 563.43C25.8168 564.11 24.6968 564.45 23.4968 564.45ZM23.4968 563.85C23.9968 563.85 24.4168 563.72 24.7568 563.46C25.1168 563.2 25.4068 562.73 25.6268 562.05C25.8468 561.37 26.0068 560.43 26.1068 559.23C26.2068 558.01 26.2568 556.44 26.2568 554.52C26.2568 552.6 26.2068 551.03 26.1068 549.81C26.0068 548.57 25.8468 547.61 25.6268 546.93C25.4068 546.25 25.1168 545.78 24.7568 545.52C24.4168 545.26 23.9968 545.13 23.4968 545.13C22.9968 545.13 22.5668 545.26 22.2068 545.52C21.8668 545.78 21.5868 546.25 21.3668 546.93C21.1468 547.59 20.9868 548.54 20.8868 549.78C20.7868 551 20.7368 552.58 20.7368 554.52C20.7368 556.44 20.7868 558.01 20.8868 559.23C20.9868 560.45 21.1468 561.4 21.3668 562.08C21.5868 562.74 21.8668 563.2 22.2068 563.46C22.5668 563.72 22.9968 563.85 23.4968 563.85ZM33.0954 550.02L33.3054 545.76C33.9054 545.42 34.6454 545.13 35.5254 544.89C36.4254 544.65 37.4354 544.53 38.5554 544.53C40.1554 544.53 41.4454 544.76 42.4254 545.22C43.4054 545.66 44.1254 546.27 44.5854 547.05C45.0454 547.83 45.2754 548.71 45.2754 549.69C45.2754 551.07 44.6054 552.42 43.2654 553.74C41.9254 555.04 40.0954 556.48 37.7754 558.06C37.3354 558.38 36.8154 558.77 36.2154 559.23C35.6154 559.69 35.0554 560.14 34.5354 560.58H45.7854V564H32.5854V561.48C33.3054 560.78 34.0054 560.09 34.6854 559.41C35.3854 558.71 36.0454 558.05 36.6654 557.43C38.1054 555.95 39.1754 554.64 39.8754 553.5C40.5954 552.34 40.9554 551.1 40.9554 549.78C40.9554 548.4 40.7054 547.29 40.2054 546.45C39.7054 545.59 38.9554 545.16 37.9554 545.16C37.3354 545.16 36.7554 545.32 36.2154 545.64C35.6954 545.94 35.2354 546.47 34.8354 547.23L33.3954 550.02H33.0954ZM54.6122 564.45C53.2722 564.45 52.1722 564.3 51.3122 564C50.4722 563.7 49.6422 563.35 48.8222 562.95L49.1522 559.05H49.4522L50.7722 561.48C51.6522 563.06 52.8722 563.85 54.4322 563.85C55.3522 563.85 56.0922 563.47 56.6522 562.71C57.2322 561.93 57.5222 560.63 57.5222 558.81C57.5222 557.23 57.2822 556.1 56.8022 555.42C56.3222 554.72 55.5022 554.37 54.3422 554.37H52.5422V553.77H54.1322C55.1922 553.77 55.9522 553.45 56.4122 552.81C56.8922 552.17 57.1322 551.06 57.1322 549.48C57.1322 547.94 56.9022 546.85 56.4422 546.21C55.9822 545.55 55.3722 545.22 54.6122 545.22C53.8522 545.22 53.2122 545.44 52.6922 545.88C52.1922 546.32 51.7822 546.84 51.4622 547.44L50.1122 549.96L49.8122 549.93L50.1122 545.52C50.7522 545.24 51.4622 545.01 52.2422 544.83C53.0422 544.63 53.9322 544.53 54.9122 544.53C57.0122 544.53 58.6022 544.99 59.6822 545.91C60.7822 546.81 61.3322 547.94 61.3322 549.3C61.3322 550.28 60.9122 551.22 60.0722 552.12C59.2322 553 57.9122 553.61 56.1122 553.95C58.1522 554.13 59.6322 554.68 60.5522 555.6C61.4722 556.52 61.9322 557.63 61.9322 558.93C61.9322 559.97 61.6322 560.91 61.0322 561.75C60.4522 562.59 59.6122 563.25 58.5122 563.73C57.4322 564.21 56.1322 564.45 54.6122 564.45Z" fill="black"/>
<line x1="29.5" y1="48" x2="29.5" y2="83" stroke="black" stroke-opacity="0.2"/>
<line x1="29.5" y1="116" x2="29.5" y2="151" stroke="black" stroke-opacity="0.2"/>
<line x1="29.5" y1="181" x2="29.5" y2="216" stroke="black" stroke-opacity="0.2"/>
<line x1="29.5" y1="246" x2="29.5" y2="281" stroke="black" stroke-opacity="0.2"/>
<line x1="29.5" y1="308" x2="29.5" y2="343" stroke="black" stroke-opacity="0.2"/>
<line x1="29.5" y1="373" x2="29.5" y2="408" stroke="black" stroke-opacity="0.2"/>
<line x1="29.5" y1="438" x2="29.5" y2="473" stroke="black" stroke-opacity="0.2"/>
<line x1="29.5" y1="503" x2="29.5" y2="538" stroke="black" stroke-opacity="0.2"/>
<line x1="29.5" y1="571" x2="29.5" y2="606" stroke="#00B36A"/>
<circle cx="29.5" cy="608.5" r="4.5" fill="#00B36A"/>
</svg>
