<svg width="1144" height="559" viewBox="0 0 1144 559" fill="none" xmlns="http://www.w3.org/2000/svg">
<path d="M688.59 384.074L679.846 393.739L671.101 398.801V410.767L666.959 419.512V428.716L671.101 433.779H679.846L684.908 428.716V419.512L690.891 404.784L693.653 393.739V384.074L690.891 379.471L688.59 384.074Z" stroke="#0081C9" stroke-width="3" stroke-dasharray="2 2"/>
<path d="M1013.98 507.417L1017.2 499.593H1024.56L1028.24 502.354L1024.56 507.417L1017.2 510.178L1013.98 507.417Z" stroke="#0081C9" stroke-width="3" stroke-dasharray="2 2"/>
<path d="M969.332 463.234L957.826 468.297H942.639L936.195 471.978L929.292 475.66L926.07 471.978V468.297L929.292 458.171V444.364V430.097L933.894 421.813L950.463 412.148H957.826L969.332 400.642L972.554 396.5L978.537 390.057L988.202 386.835L994.645 390.057L997.867 385.454L1003.85 381.312L1014.9 378.091C1024.84 376.618 1023.95 380.852 1022.26 383.153L1017.2 390.057L1022.26 393.739L1034.23 400.642L1042.51 390.057V383.153L1047.57 375.79L1049.87 383.153L1055.86 390.057V402.483L1060 408.006L1066.9 421.813L1073.81 430.097V438.381L1070.12 453.569L1063.22 463.234L1055.86 468.297L1049.87 479.802L1042.51 485.786H1035.61L1032.38 489.007L1027.78 491.769L1022.26 489.007H1014.9L1009.37 485.786V479.802L1007.07 475.66L1002.47 468.297L997.867 471.978L992.344 463.234L986.361 460.933H981.298L969.332 463.234Z" stroke="#0081C9" stroke-width="3" stroke-dasharray="2 2"/>
<path d="M1089.91 522.604H1079.79C1079.79 519.291 1083.47 515.087 1085.31 513.4L1096.82 507.417L1106.94 504.195L1115.69 498.212V504.195L1110.16 507.417L1106.94 513.4H1102.34L1096.82 518.922L1089.91 522.604Z" stroke="#0081C9" stroke-width="3" stroke-dasharray="2 2"/>
<path d="M1128.57 501.434H1122.59L1124.89 494.99V489.928L1131.34 487.166L1134.1 477.501L1136.86 484.405L1141 489.928L1134.1 494.99L1128.57 501.434Z" stroke="#0081C9" stroke-width="3" stroke-dasharray="2 2"/>
<path d="M300.613 554.821L288.186 547.917H279.442L267.476 542.855L261.493 533.19L253.669 522.144L256.89 518.002V512.019L253.669 506.036L247.225 497.752V489.468L244.924 467.376L241.703 447.586V429.177V412.148L232.498 401.563L220.992 394.199L213.628 384.074L206.265 372.108L199.821 356.92L194.759 354.619V344.034L199.821 339.891L194.759 333.908L199.821 324.243L206.265 314.118L209.486 309.516V303.073L206.265 292.027V288.805L209.486 292.027L213.628 288.805L218.231 283.283H223.293L227.896 277.3H232.498L234.799 285.584L232.498 292.027L227.896 285.584L238.021 279.601H244.924L249.066 283.283L256.43 285.584L265.175 283.283L270.697 285.584L281.283 298.47L285.885 303.073H293.249L303.834 306.294L308.437 314.118L311.658 321.022V326.545L317.181 329.766L322.244 333.908H328.687L331.909 336.21L338.352 339.891H348.017L355.841 344.034L364.585 349.096L369.648 351.397V356.92V364.744L362.284 376.71L355.841 384.074V394.199V408.466L348.017 421.813L341.573 424.114L331.909 429.177L325.005 435.62V442.063L322.244 454.49L314.42 467.376L308.437 472.899H302.914H297.851L300.613 477.962V485.325L294.63 489.468H288.186V497.752H279.442V502.814L283.124 506.036L279.442 514.32V518.002V522.144L283.124 527.667V533.19L279.442 538.713L283.124 542.855L279.442 554.821H285.885L291.408 557.122L300.613 554.821Z" stroke="#0081C9" stroke-width="3" stroke-dasharray="2 2"/>
<path d="M1070.58 362.903L1080.71 372.568L1077.49 375.79L1070.58 372.568L1062.76 365.664L1058.16 362.903H1053.09L1049.87 367.966L1040.67 365.664L1035.61 362.903H1031L1035.61 356L1031 351.857L1018.12 346.795L1011.21 344.494V339.891L1006.61 332.067H1018.12V335.749L1023.18 344.494L1027.78 339.891L1035.61 335.749L1043.89 339.891L1058.16 344.494L1067.82 351.857L1070.58 362.903Z" stroke="#0081C9" stroke-width="3" stroke-dasharray="2 2"/>
<path d="M940.338 310.897L931.133 317.8L921.929 322.402L923.769 332.988L928.372 340.352L940.338 344.954H949.543V340.352L956.446 330.687L959.207 327.005V320.561L956.446 315.039L959.207 307.215L956.446 302.612H949.543L940.338 310.897Z" stroke="#0081C9" stroke-width="3" stroke-dasharray="2 2"/>
<path d="M933.434 356L943.56 361.983L938.497 364.744L928.372 361.983H920.548H911.343L909.042 356H916.866H924.69H933.434Z" stroke="#0081C9" stroke-width="3" stroke-dasharray="2 2"/>
<path d="M909.503 341.732V348.636C909.503 354.159 903.059 353.392 899.838 352.318L893.395 345.414L887.411 332.528L878.207 319.181L870.383 311.817V305.374L885.571 311.817L890.173 319.181L899.838 326.084V330.687L909.503 341.732Z" stroke="#0081C9" stroke-width="3" stroke-dasharray="2 2"/>
<path d="M959.208 263.493L961.509 254.288C962.43 250.606 965.268 252.754 966.572 254.288V263.493L971.634 267.635L977.157 276.379L984.981 285.584L988.203 294.328V304.453H981.759L977.157 299.391L971.634 287.885L966.572 276.379L959.208 263.493Z" stroke="#0081C9" stroke-width="3" stroke-dasharray="2 2"/>
<path d="M891.553 315.499L887.411 303.073L879.587 291.107V276.839L885.11 282.362V288.345L887.411 293.408L891.553 298.47L899.377 303.073L902.599 310.897V321.942H899.377L891.553 315.499Z" stroke="#0081C9"/>
<path d="M851.973 242.782L847.83 234.958L833.563 237.259L830.342 246.464L822.978 251.527L809.171 264.413L806.87 271.777V286.044C805.765 294.881 799.659 293.408 796.744 291.567L788.46 274.999L778.335 251.527V240.021H772.352H765.909V232.657H759.005L751.181 221.611L746.119 225.753L733.232 221.611H721.726L714.823 216.089L698.715 214.248L691.351 205.503L686.288 201.361L683.067 205.503L688.589 211.946L691.351 221.611H698.715L703.777 228.055L712.061 221.611L716.664 225.753L726.329 232.657V240.021L718.965 251.527L709.3 256.129L698.715 262.112L688.589 267.635L680.765 274.999H671.1L666.498 267.635V259.351L661.436 251.527L652.691 242.782V234.958L638.884 218.85L634.742 207.804L629.679 211.946L624.157 196.759H632.441L634.742 185.713V175.588L626.918 178.349L616.793 175.588H605.747L599.764 163.622V159.48H594.241L588.719 163.622L591.48 170.065L588.719 175.588L582.275 172.366L584.576 167.764L576.752 163.622L573.531 151.656L565.247 146.593L553.281 138.309C548.126 133.523 549.599 138.769 550.979 141.991L556.962 148.894C561.718 152.423 570.493 159.48 567.548 159.48C564.602 159.48 564.786 166.537 565.247 170.065L556.962 159.48L544.076 148.894L537.633 144.292L526.127 148.894H519.683L515.541 156.258L505.876 163.622V172.366L494.371 175.588H483.785L475.501 170.065L478.723 148.894H497.592L501.734 144.292V134.627L494.371 126.343L505.876 124.042L515.541 118.519L528.428 108.394H533.49L537.633 104.252V95.5072L542.695 91.3651V97.3481L548.678 95.5072V89.0639L544.076 85.8423L537.633 89.0639L530.729 85.8423V73.8762L550.979 58.6885L565.247 48.1031L576.752 41.6598H596.543L608.509 48.1031L626.918 50.4043C632.809 55.1907 629.373 57.9214 626.918 58.6885H619.554L608.509 55.0066L619.554 64.2113H626.918L632.441 58.6885L638.884 55.0066L641.646 50.4043L649.469 55.0066L661.436 50.4043H677.084L693.192 48.1031H703.317L697.794 41.6598L700.095 37.0575H709.76L716.203 41.6598L725.868 37.0575L733.232 32.4551H743.357V27.3926L758.545 23.7107H768.21L773.272 20.0288H782.017L790.761 23.7107H803.648L806.87 27.3926L803.648 32.4551L820.677 34.7563H824.358H832.643H840.467H855.194L871.763 41.6598H881.428H889.251L891.553 34.7563L906.74 37.0575L924.69 41.6598H940.337H950.923L962.889 48.1031H985.44L989.583 45.3417H1000.63L1017.66 48.1031L1032.84 52.7054L1042.51 56.3873H1053.09L1059.54 63.2908H1046.19L1039.29 58.6885L1032.84 63.2908L1042.51 67.8932V72.9557L1032.84 79.8592H1023.18C1013.61 82.4366 1015.51 86.7628 1017.66 88.6037L1025.48 91.8253L1027.78 103.791V116.218H1023.18L1011.21 103.791L1003.39 91.8253L1007.07 76.6376L1003.39 72.9557L997.867 76.6376H991.884H985.44V84.4616H974.395H957.826L950.923 88.6037L946.321 99.6493L953.684 103.791H961.048L971.173 107.934H976.696L985.44 116.218L991.884 122.661V127.724L994.645 136.928L989.583 134.167L985.44 127.724L978.997 118.519H976.696L978.997 127.724V136.928L974.395 147.974H967.031L962.889 151.656L961.048 157.179V161.321L962.889 165.923L971.173 171.906L974.395 178.349L971.173 183.412H962.889L961.048 175.128L950.923 168.224L946.321 161.321C940.43 164.634 938.343 162.701 938.036 161.321L932.513 157.179L924.69 165.923L932.513 171.906H938.036L946.321 175.128L935.735 182.031L946.321 191.696L950.923 198.6L953.684 208.265L950.923 220.691L946.321 229.896L935.735 234.958L924.69 237.259L918.706 242.782L912.723 237.259L906.74 241.401L903.979 248.765L912.723 259.351L918.706 269.476V280.982L912.723 286.044L908.581 291.567H903.979V286.044L896.155 280.982L886.95 274.999H883.729V280.982L879.126 274.999L875.444 264.413L871.763 259.351L867.16 262.112H862.558V256.129L859.336 248.765L851.973 242.782Z" stroke="#0081C9" stroke-width="3" stroke-dasharray="2 2"/>
<path d="M982.219 194.918L979.918 188.474L981.299 184.332L985.441 180.19H990.964L997.407 176.048L1003.85 168.684L1001.09 162.701L996.026 153.036V147.053V140.15L1002.01 144.292L1010.29 147.053L1007.99 151.656H1002.01V158.559H1006.15L1010.29 165.003V170.065L1012.13 176.048V183.412H1003.85L998.788 188.474L993.265 187.554H989.123L985.441 185.713L983.14 187.554L986.821 191.696L985.441 197.219L982.219 194.918Z" stroke="#0081C9" stroke-width="3" stroke-dasharray="2 2"/>
<path d="M693.192 177.889L682.146 170.525V159.48L670.641 147.974V141.53L682.146 130.945L690.891 137.849L687.209 141.53H682.146V147.974L690.891 152.116H696.874L700.096 157.178L693.192 159.48L696.874 165.923L700.096 172.826L693.192 177.889Z" stroke="#0081C9" stroke-width="3" stroke-dasharray="2 2"/>
<path d="M621.856 154.877L611.27 158.559L604.827 149.355L607.589 141.07L616.793 133.707L621.856 141.07H629.22V133.707H637.964V141.07L645.788 146.133L653.152 154.877L645.788 158.559L634.282 154.877H621.856Z" stroke="#0081C9" stroke-width="3" stroke-dasharray="2 2"/>
<path d="M504.496 98.2684L512.32 109.774L515.542 112.536L512.32 116.678L501.275 119.899H492.53L495.291 112.536V109.774L501.275 103.331L495.291 98.2684V94.1263V89.5239H501.275L504.496 98.2684Z" stroke="#0081C9" stroke-width="3" stroke-dasharray="2 2"/>
<path d="M479.184 104.712L486.547 101.49C492.438 98.9129 491.15 102.564 489.769 104.712L486.547 111.615L479.184 115.297V104.712Z" stroke="#0081C9" stroke-width="3" stroke-dasharray="2 2"/>
<path d="M446.967 63.2907L457.092 60.0691H468.598L473.66 63.2907L463.535 69.2738H452.49L446.967 63.2907Z" stroke="#0081C9" stroke-width="3" stroke-dasharray="2 2"/>
<path d="M362.744 59.6089L367.346 52.2452C373.606 49.6678 373.636 44.4212 372.869 42.12L367.346 31.9949L357.221 23.7106H349.397L341.573 20.489V15.4264H357.221L367.346 10.3638L381.614 7.60244L404.165 10.3638L417.972 5.30127H444.666H463.535L474.581 10.3638L467.677 20.489L463.535 28.313L454.791 31.9949L447.887 36.137L454.791 42.12L447.887 45.8019L435.001 49.944L425.796 52.2452L417.972 55.4668L404.165 59.6089L391.279 66.5124L381.614 79.8592H372.869L362.744 72.4955V59.6089Z" stroke="#0081C9" stroke-width="3" stroke-dasharray="2 2"/>
<path d="M313.038 12.6649L304.294 20.4889L315.34 24.631L324.084 20.4889L335.13 16.807L355.38 12.6649L368.727 3L344.795 5.7614H328.686V12.6649H324.084H313.038Z" stroke="#0081C9" stroke-width="3" stroke-dasharray="2 2"/>
<path d="M291.407 32.915H282.203L272.998 37.9776L282.203 43.5004H291.407H301.993L310.277 53.6256V56.8472H301.993L296.47 63.2905L301.993 70.194L313.038 73.4156L319.942 66.9724V60.0689H323.624C333.933 62.6462 333.749 58.995 332.368 56.8472L326.845 49.4835L319.942 41.1993L313.038 37.9776H307.516L301.993 35.2162L291.407 32.915Z" stroke="#0081C9" stroke-width="3" stroke-dasharray="3 3"/>
<path d="M193.378 29.6936L186.475 32.9152L178.19 36.1369L180.952 41.1995L186.475 36.1369H195.679L199.361 41.1995L193.378 48.5632H201.662H207.185H214.549L222.833 46.7223L232.498 45.3416V41.1995V36.1369H229.276H225.134L220.992 32.9152L216.39 36.1369L210.407 32.9152L201.662 29.6936H193.378Z" stroke="#0081C9" stroke-width="3" stroke-dasharray="2 2"/>
<path d="M323.624 122.201L332.368 127.723L323.624 130.485H314.879L310.737 127.723L314.879 124.502L323.624 116.678V122.201Z" stroke="#0081C9" stroke-width="3" stroke-dasharray="3 3"/>
<path d="M234.799 169.144L250.907 156.718L261.032 153.497L267.476 145.673L278.521 139.689H282.663V145.673H289.567L300.152 139.689L289.567 135.087L293.249 125.422H285.425L289.567 118.058H302.453H312.579L322.704 112.996L329.607 106.553L322.704 104.251L317.641 96.8877L314.88 81.2397L302.453 88.1432L297.851 81.2397V76.1772L282.663 71.5748L274.839 76.1772L270.237 85.8421V92.2854L261.032 100.57L253.208 104.251V110.234L246.305 115.757L241.702 110.234L244.464 99.1889L234.799 96.8877L228.816 92.2854L219.611 85.8421L225.594 76.1772L238.021 71.5748L246.305 66.9725L256.89 63.7508L263.333 60.069L274.839 63.7508L272.078 69.7339L261.032 66.9725L267.476 56.3871H278.521L285.425 51.3245V46.2619H278.521L267.476 51.3245L263.333 46.2619L261.032 38.8982L253.208 42.1198V46.2619L246.305 51.3245V46.2619H241.702V51.3245H234.799L225.594 53.6257L219.611 51.3245L208.566 53.6257V56.3871L196.139 53.6257L183.253 46.2619H168.525H156.559L137.69 51.3245L124.803 46.2619L93.0468 42.1198H79.7L61.7509 46.2619L55.7679 49.0233C52.853 49.0233 47.5757 50.4961 49.7848 56.3871L42.4211 60.069H33.2164C32.2959 61.4497 31.6516 64.7634 36.438 66.9725L29.5345 71.5748H21.2503L17.1082 78.9386L11.1252 81.2397L17.1082 85.8421L1 99.1889L29.5345 88.1432L45.1825 81.2397H49.7848L64.5123 76.1772L77.3989 81.2397L87.0638 88.1432L91.6661 94.1263C90.132 99.6491 87.0638 112.167 87.0638 118.058C95.348 118.058 100.871 126.803 96.2685 128.644C92.5866 130.117 83.6887 140.61 79.7 145.673L69.1147 159.94L72.3363 183.872L79.7 193.997V202.742L82.9217 215.628L87.0638 225.293L91.6661 230.816V215.628L87.0638 206.884V199.98H91.6661V210.566L99.0299 222.071L107.774 235.878V246.464L128.025 259.35H146.434L153.337 267.635L165.304 272.237H169.906L174.048 280.061L182.332 290.646L193.838 296.629L202.583 290.646H193.838L184.633 280.061V262.572H174.048L169.906 259.35L174.048 244.163C175.736 241.708 176.809 237.535 167.605 240.481L161.161 249.225L150.576 252.907L143.212 246.464L138.15 235.878L143.212 218.85L146.434 210.566L161.161 202.742L174.048 206.884L184.633 199.98L191.537 202.742L199.821 206.884V218.85L202.583 222.071L208.566 218.85V210.566L204.884 199.98L213.628 193.997L220.992 188.014L232.498 183.872V173.747L234.799 169.144Z" stroke="#0081C9" stroke-width="3" stroke-dasharray="2 2"/>
<path d="M238.021 252.447H225.134L228.816 245.083H233.418L246.305 247.845L238.021 252.447Z" stroke="#0081C9" stroke-width="3" stroke-dasharray="2 2"/>
<path d="M206.264 231.736H191.076L195.218 234.958L203.042 239.1L209.946 244.163L224.213 241.861L219.611 239.1L206.264 231.736Z" stroke="#0081C9" stroke-width="3" stroke-dasharray="2 2"/>
<path d="M199.821 135.087H212.708L204.424 141.991L199.821 152.116L202.122 156.258L207.645 152.116L212.708 139.69H220.992V147.053L230.657 141.991V135.087H225.594L220.992 132.326L216.39 127.263H204.424L199.821 135.087Z" stroke="#0081C9" stroke-width="3" stroke-dasharray="2 2"/>
<path d="M280.362 26.4719L302.914 30.614L307.976 26.4719H294.63L286.345 22.3298L280.362 26.4719Z" stroke="#0081C9" stroke-width="3" stroke-dasharray="2 2"/>
<path d="M305.215 8.52271L301.993 14.966H295.55L289.107 12.6648L295.55 8.52271H305.215Z" stroke="#0081C9" stroke-width="3" stroke-dasharray="2 2"/>
<path d="M559.264 98.7286L563.406 90.9047L566.168 85.3818L568.469 81.2397L563.406 75.7169V70.6544L573.071 67.4327L579.054 58.228L585.498 63.2906L576.753 70.6544L579.054 78.9386H594.702L600.685 81.2397L594.702 85.3818H585.498V90.9047H579.054V98.7286L573.071 102.871H568.469L559.264 106.092L554.662 102.871H544.997L550.98 98.7286H559.264Z" stroke="#0081C9" stroke-width="3" stroke-dasharray="2 2"/>
<path d="M959.208 341.272L963.35 330.687C961.141 327.373 964.271 324.09 966.112 322.863C966.112 320.654 978.078 321.942 984.061 322.863C984.061 330.227 975.47 327.772 971.174 325.624L967.952 328.846L969.333 333.448H976.237L971.174 337.59L973.936 344.034L971.174 347.255L967.952 341.272L966.112 344.034V352.318L959.208 350.937V341.272Z" stroke="#0081C9" stroke-width="3" stroke-dasharray="2 2"/>
<path d="M458.473 210.565L464.456 208.264L471.36 198.139V191.236L478.263 187.093L487.468 180.65L497.133 184.792L511.4 176.048L521.065 174.667L532.111 176.048L541.775 171.906L545.918 180.65L541.775 184.792L552.361 191.236H558.344L565.247 198.139L574.452 201.361L579.054 198.139V191.236H589.18L601.146 198.139H613.112H624.157L630.14 210.565L632.902 217.469L637.964 227.134L641.646 236.339V243.702L648.09 249.225L651.771 260.271L659.135 265.333L665.578 273.157L668.34 280.521L673.402 283.743L681.687 285.584L697.335 280.521V292.027L690.431 303.533L683.988 313.658L675.243 321.942L665.578 332.988L657.294 342.192L651.771 352.318L654.533 364.744L659.135 370.727V380.852V390.057L654.533 397.881L645.788 400.182L641.646 406.165L635.663 413.068L637.964 424.574L635.663 429.637L629.22 434.239L625.998 438.381V442.984L624.618 448.506L613.572 461.853L603.447 468.757L594.702 472.899L590.1 468.757L584.117 472.899H576.293L573.071 468.757V461.853L569.39 453.569L562.026 444.825V438.381L559.264 424.574L555.122 413.068L549.139 403.864V395.58L552.361 387.756L555.122 378.551V370.727V364.744L552.361 357.84L549.139 347.715L545.918 344.033L541.775 337.59V330.226V319.181V313.658L535.332 308.595H526.588L522.906 303.533L516.923 300.311L509.099 303.533L499.434 306.294H487.468L475.502 308.595L467.678 306.294L456.172 297.089L452.95 292.027L448.808 285.584L445.126 280.521L442.825 277.299V271.316L439.604 266.714L442.825 261.191V251.526V246.924V241.401V234.958L448.808 227.134L452.95 217.469L458.473 210.565Z" stroke="#0081C9" stroke-width="3" stroke-dasharray="2 2"/>
</svg>
